<?xml version="1.0" encoding="utf-8"?>
<!-- Generator: Adobe Illustrator 22.1.0, SVG Export Plug-In . SVG Version: 6.00 Build 0)  -->
<svg version="1.1" id="Layer_1" xmlns="http://www.w3.org/2000/svg" xmlns:xlink="http://www.w3.org/1999/xlink" x="0px" y="0px"
	 width="1516.3px" height="1516.3px" viewBox="0 0 1516.3 1516.3" enable-background="new 0 0 1516.3 1516.3" xml:space="preserve">
<g id="Layer_5">
	<g>
		<path fill="#F2F2F2" d="M1094.5,758.1c-0.4-3.3-0.9-6.5-1.5-9.7c-3.2-16.8-10.2-32.8-20.7-46.2c-11.7-15.1-28.4-25.9-46.7-31.2
			c-7.5-2.3-15.2-3.3-23.1-4.1c-6.5-0.1-13.1-0.4-19.4,0.4c-6.2,0.5-12.4,1.8-18.5,3.6c-8.5,2.7-16.9,6.2-24.8,10.7
			c-11.7,6.5-22.2,15.1-31.7,24.4c-9.9,10-19,20.7-28.1,31.5c-7-8.4-14.2-16.5-21.6-24.4c-4.2-4.2-8.3-8.5-12.7-12.4
			c-14.6-13.1-31.6-23.7-50.5-29.5c-7-2.2-14.3-3.3-21.7-4.1c-4.6-0.4-9-0.1-13.6-0.1c-1.5,0-3.2-0.1-4.7,0.4
			c-4.6,0.1-9.1,1-13.7,1.8c-2.5,0.5-5.2,1.1-7.7,2c-11.7,3.6-22.6,9.1-32.1,16.8c-14.2,11.2-24.6,26.7-30.5,43.7
			c-2.7-5.8-5.8-11.7-9.5-16.9c-11-15.6-27.4-27-45.7-32.3c-2.8-0.9-5.7-1.5-8.8-2c-3.8-0.6-7.7-1-11.6-1.4
			c-8-0.1-16.3-0.1-24.3,1.4c-15.2,2.3-29.5,10.2-40.1,21.2c-1.8-0.1-0.9-2.5-0.6-3.7c1.1-7.4,2.5-14.6,3.8-22
			c1-6.3,2.3-12.7,3.3-18.9c1.1-6.5,2.3-12.8,3.6-19.4c0.1-0.9,0.4-1.7,0.5-2.5c0.1-0.6,0.1-1.1,0.4-1.8c40.9,0,81.6,0,122.5,0
			c0-16.5,0-33,0-49.5c-55.2,0-110.5,0-165.7,0c-1.7,9.4-3.3,18.9-5.1,28.3c-0.6,3.6-1.4,7-1.8,10.7c-1.1,6.5-2.3,12.8-3.6,19.4
			c-0.1,1-0.4,1.8-0.5,2.8c-0.4,2.7-1,5.2-1.4,7.9c-0.6,3.8-1.4,7.7-2,11.6c-0.6,3.6-1.4,7.2-2,10.7c-0.4,2.7-0.9,5.2-1.4,7.9
			c-0.1,0.9-0.4,1.7-0.5,2.3c-1.1,6.5-2.3,12.8-3.6,19.4c-2,10.9-3.8,22-5.8,32.8c-0.4,2.7-0.9,5.2-1.4,7.9
			c-0.1,0.9-0.4,1.7-0.4,2.7c18,0,36.2,0,54.1,0c5.5-7.5,12.2-14.6,20.7-18.9c5.7-2.8,12.2-4.2,18.5-4.7c4.1-0.1,8.3-0.1,12.2,0
			c1.5,0.4,3.2,0.4,4.8,0.6c9.7,1.7,18.8,6.7,25.4,13.6c7.2,7.4,11.7,16.9,13.7,26.9c3.3,16.5,0.6,34.4-8.5,48.8
			c-5.3,8.4-13.3,15.1-22.5,19c-4.6,2-9.4,3-14.2,3.6c-3.2,0.1-6.2,0.1-9.4,0c-3.6-0.5-7.2-0.9-10.7-2c-9-2.5-17.3-7.9-23-15.4
			c-6.2-7.7-9.5-17.4-10.4-27c-20.1,0-40.1,0-60.2,0c0.4,3.2,0.1,6.3,0.6,9.4c0.1,3.3,0.9,6.5,1.4,9.7c0.1,0.9,0.4,1.5,0.5,2.3
			c0.5,2,1,3.8,1.5,5.7c4.1,13.6,11.9,25.9,21.7,35.9c7.4,7.2,16.1,13.2,25.3,17.9c8,4.1,16.5,6.7,25.3,8.9
			c11.9,2.7,24.1,4.1,36.2,3.7c24.6,0.1,49-8.3,68.3-23.6c13.6-10.9,24.3-25.1,31.1-41.1c2.5,6,5.2,11.9,8.8,17.4
			c4.8,7.9,11.2,14.9,18.3,21.1c14.1,12.1,31.2,20.4,49.6,23.1c11.9,1.8,23.9,1.8,35.8,0.1c3.3-0.6,6.7-1.1,10-2
			c2.2-0.5,4.2-1.1,6.3-2c5.7-2,11.2-4.3,16.5-7.2c11.4-5.8,21.6-13.7,31.1-22.2c6.9-6.3,13.1-13.1,19.6-19.8
			c3.8-4.2,8-8.3,11.7-12.4c4.3,5.1,8.8,9.9,13.2,14.7c6.5,6.7,13.1,13.6,20.2,19.4c15.7,13.3,34,24.1,54.1,29.5
			c3,0.6,5.8,1.4,8.9,1.8c10.7,1.8,21.6,1.7,32.3,0.5c19.3-2.3,38-10.5,52.3-23.6c14.9-13.7,24.9-32,30-51.4c0.9-3,1.5-6,2-9
			c0.5-3.2,1-6.2,1.4-9.4c0.6-5.3,0.9-10.5,0.9-15.9C1095.4,768.6,1095.4,763.4,1094.5,758.1z M812.9,806.9
			c-7.9,5.8-16.8,10.5-25.9,13.8c-3.2,1.1-6.5,2-9.9,2.7c-9.9,1.7-20.4,1.4-29.8-2.2c-7.7-2.8-14.2-8.3-18.9-14.9
			c-3.3-4.7-5.7-10.2-7-15.7c-1.4-6.5-2.2-13.2-1.4-19.9c0.1-2.8,0.6-5.7,1.4-8.4c2.2-8.8,6.5-16.9,12.6-23.7
			c5.7-6.5,13.8-11,22.5-12.4c1.4-0.4,2.8-0.4,4.2-0.6c4.1-0.1,8.3-0.1,12.1,0.6c10.9,1.8,20.7,7,29.8,12.8
			c15.7,10.5,29.3,23.9,42.2,37.8C835,787.7,824.8,798.5,812.9,806.9z M1040,782.4c-1.1,10-4.7,19.8-11.2,27.6
			c-5.3,6.9-13.3,11.6-21.7,13.2c-7.9,1.7-16.3,1.7-24.3,0.1c-2-0.4-4.1-0.9-6-1.4c-19.9-6-36.8-19-50.9-34
			c-3.6-3.8-7.4-7.5-10.5-11.7c7.7-8,15.2-16.4,23.5-24.1c11-10.2,23.2-19.4,37.7-24.4c2.7-0.9,5.3-1.5,8.3-2c8.4-1.4,17-0.9,25.1,2
			c8.9,3,16.3,9.1,21.5,16.9c4.8,7,7.7,15.4,8.8,23.7C1040.3,773.3,1040.3,778,1040,782.4z"/>
	</g>
</g>
<g id="Layer_2_1_">
	<path fill="#F2F2F2" d="M1336.2,1359.6H203.6c-18.5,0-33.5-15-33.5-33.5V193.5c0-18.5,15-33.5,33.5-33.5h1132.6
		c18.5,0,33.5,15,33.5,33.5v1132.6C1369.7,1344.6,1354.6,1359.6,1336.2,1359.6z M227.1,1302.6h1085.6V217H227.1V1302.6z"/>
</g>
</svg>
