<?xml version="1.0" encoding="utf-8"?>
<!-- Generator: Adobe Illustrator 22.1.0, SVG Export Plug-In . SVG Version: 6.00 Build 0)  -->
<svg version="1.1" id="Layer_1" xmlns="http://www.w3.org/2000/svg" xmlns:xlink="http://www.w3.org/1999/xlink" x="0px" y="0px"
	 width="1516.3px" height="1516.3px" viewBox="0 0 1516.3 1516.3" enable-background="new 0 0 1516.3 1516.3" xml:space="preserve">
<g id="Layer_4">
	<g>
		<path fill="#F2F2F2" d="M776.7,495.6c82.2,0,91.9,0.3,124.4,1.8c30,1.4,46.3,6.4,57.1,10.6c13.4,4.9,25.5,12.8,35.4,23
			c10.2,9.9,18.1,22,23,35.4c4.2,10.8,9.2,27.1,10.6,57.1c1.5,32.5,1.8,42.2,1.8,124.4s-0.3,91.9-1.8,124.4
			c-1.4,30-6.4,46.3-10.6,57.1c-10.4,26.8-31.6,48.1-58.4,58.4c-10.8,4.2-27.1,9.2-57.1,10.6c-32.4,1.5-42.2,1.8-124.4,1.8
			s-91.9-0.3-124.4-1.8c-30-1.4-46.3-6.4-57.1-10.6c-13.4-4.9-25.5-12.8-35.4-23c-10.2-9.9-18.1-22-23-35.4
			c-4.2-10.8-9.2-27.1-10.6-57.1c-1.5-32.5-1.8-42.2-1.8-124.4s0.3-91.9,1.8-124.4c1.4-30,6.4-46.3,10.6-57.1
			c4.9-13.4,12.8-25.5,23-35.4c9.9-10.2,22-18.1,35.4-23c10.8-4.2,27.1-9.2,57.1-10.6C684.8,495.9,694.5,495.6,776.7,495.6
			 M776.7,440.2c-83.6,0-94.1,0.4-126.9,1.9c-32.8,1.5-55.1,6.7-74.7,14.3c-20.5,7.7-39.1,19.8-54.5,35.5
			c-15.7,15.4-27.8,34-35.5,54.5c-7.6,19.6-12.8,41.9-14.3,74.7s-1.9,43.3-1.9,126.9s0.4,94.1,1.9,126.9
			c1.5,32.8,6.7,55.1,14.3,74.7c7.7,20.5,19.8,39.1,35.5,54.5c15.4,15.7,34,27.8,54.5,35.5c19.6,7.6,41.9,12.8,74.7,14.3
			s43.3,1.9,126.9,1.9s94.1-0.4,126.9-1.9c32.8-1.5,55.1-6.7,74.7-14.3c41.3-16,74-48.7,90-90c7.6-19.6,12.8-41.9,14.3-74.7
			s1.9-43.3,1.9-126.9s-0.4-94.1-1.9-126.9c-1.5-32.8-6.7-55.1-14.3-74.7c-7.7-20.5-19.8-39.1-35.5-54.5
			c-15.4-15.7-34-27.8-54.5-35.5c-19.6-7.6-41.9-12.8-74.7-14.3C870.7,440.5,860.3,440.2,776.7,440.2L776.7,440.2L776.7,440.2z"/>
		<path fill="#F2F2F2" d="M776.7,589.9c-87.3,0-158,70.8-158,158s70.8,158,158,158s158-70.8,158-158l0,0
			C934.7,660.6,864,589.9,776.7,589.9z M776.7,850.5c-56.7,0-102.6-45.9-102.6-102.6c0-56.7,45.9-102.6,102.6-102.6
			c56.7,0,102.6,45.9,102.6,102.6S833.3,850.5,776.7,850.5z"/>
		<circle fill="#F2F2F2" cx="941" cy="583.6" r="36.9"/>
	</g>
</g>
<g id="Layer_2_1_">
	<path fill="#F2F2F2" d="M1336.2,1359.6H203.6c-18.5,0-33.5-15-33.5-33.5V193.5c0-18.5,15-33.5,33.5-33.5h1132.6
		c18.5,0,33.5,15,33.5,33.5v1132.6C1369.7,1344.6,1354.6,1359.6,1336.2,1359.6z M227.1,1302.6h1085.6V217H227.1V1302.6z"/>
</g>
</svg>
