<?xml version="1.0" encoding="utf-8"?>
<!-- Generator: Adobe Illustrator 22.1.0, SVG Export Plug-In . SVG Version: 6.00 Build 0)  -->
<svg version="1.1" xmlns="http://www.w3.org/2000/svg" xmlns:xlink="http://www.w3.org/1999/xlink" x="0px" y="0px"
	 width="1516.3px" height="1516.3px" viewBox="0 0 1516.3 1516.3" enable-background="new 0 0 1516.3 1516.3" xml:space="preserve">
<g id="Layer_3">
	<g>
		<g>
			<path id="LinkedIn_1_" fill="#F2F2F2" d="M1083.9,785.6V1010H953.8V800.6c0-52.6-18.8-88.5-65.9-88.5c-36,0-57.3,24.2-66.8,47.6
				c-3.4,8.4-4.3,20-4.3,31.7V1010H686.7c0,0,1.8-354.6,0-391.4h130.1v55.5c-0.3,0.4-0.6,0.9-0.9,1.3h0.9v-1.3
				c17.3-26.6,48.2-64.7,117.3-64.7C1019.7,609.4,1083.9,665.4,1083.9,785.6z M550.6,430c-44.5,0-73.6,29.2-73.6,67.6
				c0,37.6,28.3,67.7,71.9,67.7h0.9c45.4,0,73.6-30.1,73.6-67.7C622.5,459.2,595.1,430,550.6,430z M484.6,1010h130.1V618.6H484.6
				V1010z"/>
		</g>
		<g>
		</g>
		<g>
		</g>
		<g>
		</g>
		<g>
		</g>
		<g>
		</g>
		<g>
		</g>
		<g>
		</g>
		<g>
		</g>
		<g>
		</g>
		<g>
		</g>
		<g>
		</g>
		<g>
		</g>
		<g>
		</g>
		<g>
		</g>
		<g>
		</g>
	</g>
</g>
<g id="Layer_2">
	<path fill="#F2F2F2" d="M1336.2,1359.6H203.6c-18.5,0-33.5-15-33.5-33.5V193.5c0-18.5,15-33.5,33.5-33.5h1132.6
		c18.5,0,33.5,15,33.5,33.5v1132.6C1369.7,1344.6,1354.6,1359.6,1336.2,1359.6z M227.1,1302.6h1085.6V217H227.1V1302.6z"/>
</g>
</svg>
