<?xml version="1.0" encoding="utf-8"?>
<!-- Generator: Adobe Illustrator 22.1.0, SVG Export Plug-In . SVG Version: 6.00 Build 0)  -->
<svg version="1.1" id="Layer_1" xmlns="http://www.w3.org/2000/svg" xmlns:xlink="http://www.w3.org/1999/xlink" x="0px" y="0px"
	 width="1516.3px" height="1516.3px" viewBox="0 0 1516.3 1516.3" enable-background="new 0 0 1516.3 1516.3" xml:space="preserve">
<g id="Capa_1">
	<g>
		<g>
			<path fill="#F2F2F2" d="M1083.4,587.6c-22.5,10-46.7,16.8-72.1,19.8c25.9-15.5,45.8-40.2,55.2-69.4
				c-24.3,14.4-51.2,24.8-79.8,30.5c-22.9-24.4-55.5-39.7-91.6-39.7c-69.3,0-125.6,56.2-125.6,125.5c0,9.8,1.1,19.4,3.3,28.6
				C668.5,677.7,576,627.7,514,551.7c-10.8,18.5-17,40.1-17,63.1c0,43.6,22.2,82,55.8,104.5c-20.6-0.7-39.9-6.3-56.9-15.8v1.6
				c0,60.8,43.3,111.6,100.7,123.1c-10.5,2.8-21.6,4.4-33.1,4.4c-8.1,0-15.9-0.8-23.6-2.3c16,49.9,62.3,86.2,117.3,87.2
				c-42.9,33.7-97.1,53.7-155.9,53.7c-10.1,0-20.1-0.6-29.9-1.7c55.6,35.7,121.5,56.5,192.4,56.5c230.9,0,357.2-191.3,357.2-357.2
				l-0.4-16.3C1045.3,634.9,1066.6,612.8,1083.4,587.6z"/>
		</g>
	</g>
</g>
<g id="Layer_2_1_">
	<path fill="#F2F2F2" d="M1336.2,1359.6H203.6c-18.5,0-33.5-15-33.5-33.5V193.5c0-18.5,15-33.5,33.5-33.5h1132.6
		c18.5,0,33.5,15,33.5,33.5v1132.6C1369.7,1344.6,1354.6,1359.6,1336.2,1359.6z M227.1,1302.6h1085.6V217H227.1V1302.6z"/>
</g>
</svg>
